<svg height="47" viewBox="0 0 156 47" width="156" xmlns="http://www.w3.org/2000/svg"><g fill="none" fill-rule="evenodd"><circle cx="23.5" cy="23.5" fill="#fff" r="23.5"></circle><path d="m17.6040668 10.1497833c-.3562545 1.8874012-2.3868403 12.5191146-2.8040332 14.6870875-.4171929 2.167973 1.3708388 4.1112188 3.1263256 4.1112188h2.7080644c.7205404 0 1.7932442.506163 1.3894616 2.3494548s-.8213049 3.7395337-1.2317376 5.5305739c-.4104328 1.7910402 1.6464568 2.5132307 2.5382865 1.1169188.8918296-1.396312 7.5505442-12.0535407 8.3168018-13.4867812.7662575-1.4332406-.4888481-3.6495817-2.3780327-3.6495817-1.8891845 0-2.670921 0-3.6618815 0-.9909606 0-1.1300344-.7074803-.77038-2.1649036.3596543-1.4574232.7921145-3.3638494 1.4608011-6.1577439.6686865-2.79389453-2.0259351-4.31149441-3.4457574-4.31149441s-2.9464354 0-3.3673248 0-1.5243393.08784977-1.8805938 1.97525101z" fill="#457eff"></path><path d="m71.2059263 28.1080408h-9.5232843l2.5722547-14.5599324c.3169182-1.7938765-.8803931-3.5050137-2.6742696-3.82193188-.1894442-.03346848-.3814533-.05029896-.5738311-.05029896l-3.7785935 21.50419044h10.3393773c1.7995612 0 3.3367482-1.2979193 3.6383465-3.0720272zm8.9153463 3.4406705c1.2902515 0 2.4934621-.2355221 3.609632-.7065663 1.1161699-.4710441 2.0889785-1.1264099 2.9184259-1.9660974.8294473-.8396874 1.4796931-1.8176161 1.9507372-2.933786.4710442-1.1161699.7065663-2.3296206.7065663-3.6403522 0-1.3312118-.2867225-2.4985821-.8601676-3.502111s-1.3670521-1.7920159-2.3808211-2.365461-2.1964995-.8601676-3.5481914-.8601676c-1.2697713 0-2.4576218.230402-3.5635516.6912061s-2.0736184 1.1110499-2.9030657 1.9507373c-.8294474.8396874-1.4745731 1.8176161-1.9353772 2.933786-.460804 1.1161699-.6912061 2.3193805-.6912061 3.609632 0 1.3107316.2816025 2.4729819.8448075 3.4867508.563205 1.013769 1.3465719 1.8176161 2.3501008 2.4115414s2.1708992.8908879 3.502111.8908879zm.5222447-3.4099502c-.8806478 0-1.6332945-.3072027-2.25794-.9216082-.6246456-.6144054-.9369683-1.4848131-.9369683-2.6112231 0-1.0649694.2048018-2.0224179.6144054-2.8723454.4096036-.8499276.9676886-1.5206535 1.6742548-2.0121779.7065663-.4915243 1.4899332-.7372865 2.3501009-.7372865.8806478 0 1.6332944.3072027 2.25794.9216082.6246455.6144054.9369683 1.4848131.9369683 2.6112231 0 1.0649694-.2048019 2.0224179-.6144055 2.8723454-.4096036.8499276-.9625685 1.5206535-1.6588947 2.0121779-.6963262.4915243-1.4848131.7372865-2.3654609.7372865zm17.578463 3.4099502c1.3107316 0 2.5344227-.2457622 3.6710727-.7372865 1.13665-.4915244 2.124819-1.1776105 2.964506-2.0582583.839688-.8806478 1.474573-1.9148969 1.904657-3.1027475-2.072535-.1661998-3.387474-.0127807-3.944816.4602572-.836012.7095569-.985788.9887157-1.692354 1.4290396s-1.4796931.6604858-2.3193805.6604858c-.9420883 0-1.7100951-.3225628-2.3040204-.9676885-.5939253-.6451258-.8908879-1.5104134-.8908879-2.595863s.2150419-2.0582583.6451257-2.9184259 1.013769-1.5411336 1.7510555-2.0428981c.7372866-.5017644 1.5462537-.7526466 2.4269016-.7526466.839687 0 1.492868.190392 2.045833.6307159s.594935.7218504 1.163985 1.4433396c.379367.4809928 1.664648.6395685 3.855845.475727 0-1.8432163-.588806-3.2870691-1.766416-4.3315583-1.177611-1.0444893-2.749464-1.5667339-4.715562-1.5667339-1.3516919 0-2.6009829.2406421-3.7478731.7219264s-2.1504191 1.1520102-3.0105867 2.0121778-1.5257735 1.8636965-1.9968177 3.0105867c-.4710441 1.1468901-.7065662 2.375701-.7065662 3.6864326s.2713624 2.4576218.8140872 3.4406705 1.3158516 1.7459355 2.3193805 2.2886603 2.1811394.8140872 3.5328313.8140872zm17.9471067 0c1.290251 0 2.493462-.2355221 3.609632-.7065663 1.11617-.4710441 2.088978-1.1264099 2.918425-1.9660974.829448-.8396874 1.479694-1.8176161 1.950738-2.933786s.706566-2.3296206.706566-3.6403522c0-1.3312118-.286723-2.4985821-.860168-3.502111s-1.367052-1.7920159-2.380821-2.365461-2.196499-.8601676-3.548191-.8601676c-1.269771 0-2.457622.230402-3.563552.6912061-1.105929.4608041-2.073618 1.1110499-2.903065 1.9507373-.829448.8396874-1.474573 1.8176161-1.935378 2.933786-.460804 1.1161699-.691206 2.3193805-.691206 3.609632 0 1.3107316.281603 2.4729819.844808 3.4867508.563205 1.013769 1.346572 1.8176161 2.350101 2.4115414s2.170899.8908879 3.502111.8908879zm.522244-3.4099502c-.880648 0-1.633294-.3072027-2.25794-.9216082-.624645-.6144054-.936968-1.4848131-.936968-2.6112231 0-1.0649694.204802-2.0224179.614405-2.8723454.409604-.8499276.967689-1.5206535 1.674255-2.0121779.706567-.4915243 1.489933-.7372865 2.350101-.7372865.880648 0 1.633295.3072027 2.25794.9216082.624646.6144054.936968 1.4848131.936968 2.6112231 0 1.0649694-.204801 2.0224179-.614405 2.8723454-.409604.8499276-.962569 1.5206535-1.658895 2.0121779-.696326.4915243-1.484813.7372865-2.365461.7372865zm15.552188-.8321515 1.41187-8.0767274h3.287069l.583685-3.2870691h-3.287069l.307203-1.7817758c.122881-.6348856.353283-1.0854496.691206-1.351692.337923-.2662423.844807-.3993635 1.520653-.3993635.605073 0 1.123793-.4322013 1.232992-1.0273386l.425903-2.32117108h-1.658895c-1.617934 0-2.964506.38912344-4.039715 1.16737038-1.07521.7782468-1.776656 2.0889785-2.104339 3.9321948l-.307203 1.7817758h-2.088978l-.583685 3.2870691h2.088978l-2.088978 11.9501858c2.273389 0 4.217834-1.6340272 4.609303-3.8734584zm11.546689 8.2583705 12.113125-19.622167c-2.589158 0-4.985565 1.3682293-6.301669 3.5979398l-4.204664 7.1234351-1.517271-6.6190945c-.550257-2.4004979-2.68627-4.1022804-5.149028-4.1022804l3.679032 15.2617833-4.231997 6.7339315h1.357857c1.73381 0 3.343861-.8982093 4.254615-2.3735478z" fill="#fff" fill-rule="nonzero"></path></g></svg>